<svg id="search" xmlns="http://www.w3.org/2000/svg" width="96" height="96" viewBox="0 0 96 96"><title>search</title><path d="M88,81.8A6.2,6.2,0,0,1,81.8,88a5.7,5.7,0,0,1-4.3-1.8L61,69.7a32.9,32.9,0,0,1-19.2,6A33.3,33.3,0,0,1,28.7,73a33.1,33.1,0,0,1-18-18,33.7,33.7,0,0,1,0-26.3,33.2,33.2,0,0,1,18-18,33.7,33.7,0,0,1,26.3,0,33.2,33.2,0,0,1,18,18,33.3,33.3,0,0,1,2.7,13.1,32.9,32.9,0,0,1-6,19.2L86.2,77.5A5.9,5.9,0,0,1,88,81.8ZM57.1,57.1a20.7,20.7,0,0,0,6.3-15.2,20.7,20.7,0,0,0-6.3-15.2,20.7,20.7,0,0,0-15.2-6.3,20.7,20.7,0,0,0-15.2,6.3,20.7,20.7,0,0,0-6.3,15.2,20.7,20.7,0,0,0,6.3,15.2,20.7,20.7,0,0,0,15.2,6.3A20.7,20.7,0,0,0,57.1,57.1Z"/></svg>