<svg id="logo_michael-bragg" xmlns="http://www.w3.org/2000/svg" width="286" height="72" viewBox="0 0 286 72"><title>michael-bragg</title><path id="gg" d="M281.9,40.8V25a26.3,26.3,0,0,0-9.6-1.8h-1.6a12.5,12.5,0,0,0-5.9,1.9l-.2.2-.8.7h-.1l-1.2,1.4c-1.7,1.9-3.4,4.5-5.6,7.1V25a26.3,26.3,0,0,0-9.7-1.8c-7.2,0-12.3,4.2-12.3,12.3,0,5.8,3.4,9.4,7.2,9.9l-.6.5a10,10,0,0,0-4.3,7.1q0,.3,0,.7c0,4.2,2.8,6.8,8.5,6.8s10.5-4.4,11.1-11.5c.1-1.4.1-4.3.1-5.5V40.6l3.4-3.4c.6,4.7,3.6,7.7,7,8.1-3,2.3-5,4.7-5,8.1s2.8,6.8,8.5,6.8,10.5-4.4,11.1-11.5c.1-1.4.1-4.3.1-5.5V41.8l3.9-1.6ZM247,28.7l1.9.2v9.4a2.9,2.9,0,0,1-2.6,3.3H246c-3,0-3.4-3.3-3.4-6.2S243.9,28.7,247,28.7Zm2,19.2c0,4.3-.3,6.8-2.7,6.8s-2.1-.7-2.1-2.4a5.9,5.9,0,0,1,.8-2.8h.1a12.1,12.1,0,0,1,4.1-3.8Zm18.7-12.5c0-3,.9-6,3.5-6.5h.8l1.9.2v9.4a2.9,2.9,0,0,1-2.6,3.3H271C268.1,41.5,267.8,38.3,267.8,35.4Zm6.3,12.5c0,4.3-.3,6.8-2.7,6.8s-2.1-.7-2.1-2.4,2-5.2,5-6.8Z"/><path id="a" d="M232.2,42.8l.6,5.1h-6.7l-.3-2.3h-.2a6.7,6.7,0,0,1-6.1,2.9c-7.2,0-9-5.8-9-11.6,0-8.2,4.2-13.8,12.6-13.8a28,28,0,0,1,9.1,1.9Zm-7.8-13.8a6.8,6.8,0,0,0-2.1-.3c-3,0-4.1,3.6-4.1,7.7s.7,6.7,3.4,6.7a2.7,2.7,0,0,0,2.8-2.6h0Z"/><path id="r" d="M202.3,47.8h-7.8V28.5l-.6-4.6h6.3l.6,3.3a6.1,6.1,0,0,1,5.6-4.1,9.1,9.1,0,0,1,3.8.9L209,30.5a7.3,7.3,0,0,0-3.4-.8,3.3,3.3,0,0,0-3.4,3.2q0,.1,0,.2Z"/><path id="b" d="M179.1,16.7c5.6,0,10.5,1.7,10.5,8a7.8,7.8,0,0,1-3.5,6.3,7.2,7.2,0,0,1,5.1,7.2c0,6.2-4.5,9.6-12.6,9.6H167.2V16.7ZM175.2,29h2.3c2.7,0,3.9-1.5,3.9-3.3a3.3,3.3,0,0,0-3.6-3.2h-2.6Zm0,12.7h3c3.3,0,4.4-1.4,4.4-3.6s-1.6-3.4-4.2-3.4h-3.3Z"/><path id="el" d="M154.1,41.7a7.7,7.7,0,0,1-2.7.8c-1.5,0-2-1-2-3V15.3h-7.8v21a1.6,1.6,0,0,1-.3.8c-1.8,1.9-6,5.8-10.3,5.8s-4.4-1.7-4.6-3.8c4.6-.2,12.3-1.7,12.3-8.5,0-5-3.3-7.3-8.2-7.3-8,0-12.1,6.5-12.1,13.3s3.3,12.1,11.5,12.1a15.5,15.5,0,0,0,12-5.2c.5,2.9,2.1,5.2,7.4,5.2a13.4,13.4,0,0,0,6.5-1.7ZM130,28.6a1.7,1.7,0,0,1,1.8,1.9c0,2.3-3.3,3.5-5.9,3.6C126.2,31,127.6,28.6,130,28.6Z"/><path id="a-2" d="M115.6,42.8l.6,5.1h-6.8l-.3-2.3h-.2a6.7,6.7,0,0,1-6.1,2.9c-7.2,0-9-5.8-9-11.6.1-8.2,4.3-13.8,12.7-13.8a28,28,0,0,1,9.1,1.9Zm-7.8-13.8a6.8,6.8,0,0,0-2.1-.3c-3,0-4.1,3.6-4.1,7.7s.7,6.7,3.4,6.7a2.7,2.7,0,0,0,2.8-2.6h0Z"/><path id="h" d="M70.2,47.8V15.3h7.9v9.9a7.9,7.9,0,0,1,5.3-2c5,0,7.6,2.7,7.6,8.5V47.8H83.2V32.7c0-2.1-.5-3.5-2.1-3.5a3.1,3.1,0,0,0-2.9,3.3V47.8Z"/><path id="c" d="M65.6,40.5l2.7,5.3a14,14,0,0,1-8.8,2.7c-7,0-11.4-4.3-11.4-12.4s6-12.9,11.6-12.9a10.3,10.3,0,0,1,9.1,4.9l-4.7,4.1c-1.1-1.6-2.4-2.7-4.1-2.7S56,31.7,56,35.8s1.5,6.5,4.6,6.5A8,8,0,0,0,65.6,40.5Z"/><path id="i" d="M37.3,47.8V23.9h7.9V47.8Z"/><path id="m" d="M23.1,16.7h8.2L33,47.8H25.4l-.9-16.5h-.1L19.3,44.7H13.6l-5-12.9H8.6L7.7,47.8H0L1.8,16.7h8.3l6.4,17.7h.2Z"/></svg>